<svg width="32" height="32" viewBox="0 0 32 32" fill="none" xmlns="http://www.w3.org/2000/svg">
  <!-- Background Circle with Comic Shadow -->
  <circle cx="16" cy="16" r="15" fill="#E8F5E8" stroke="#2D5A3D" stroke-width="2"/>
  <circle cx="16" cy="16" r="13" fill="#4A7C59"/>
  
  <!-- Music Note Icon -->
  <path d="M12 20c0 1.1.9 2 2 2s2-.9 2-2-.9-2-2-2-2 .9-2 2zm8-12v9c0 1.1-.9 2-2 2s-2-.9-2-2 .9-2 2-2c.2 0 .4 0 .6.1l.4-6.1z" fill="#FFFFFF" stroke="#2D5A3D" stroke-width="1"/>
  
  <!-- Download Arrow -->
  <path d="M21 14l-3 3-3-3" stroke="#FFFFFF" stroke-width="2" stroke-linecap="round" stroke-linejoin="round"/>
  <path d="M18 17V9" stroke="#FFFFFF" stroke-width="2" stroke-linecap="round"/>
  
  <!-- Eco Leaf Accent -->
  <path d="M8 10c0-1 1-2 2-2s2 1 2 2-1 2-2 2-2-1-2-2z" fill="#7CBE8A"/>
  <path d="M10 10c0 1 1 2 2 2" stroke="#4A7C59" stroke-width="1" fill="none"/>
</svg>