<svg width="32" height="32" viewBox="0 0 32 32" fill="none" xmlns="http://www.w3.org/2000/svg">
  <!-- Background circle with eco-friendly gradient -->
  <circle cx="16" cy="16" r="15" fill="url(#leafGradient)" stroke="#0f3a1a" stroke-width="2"/>
  
  <!-- Main leaf shape -->
  <path d="M16 6c-6 0-10 4-10 10 0 3 1.2 5.7 3.2 7.7C11.3 25.8 14.5 26 16 26c1.5 0 4.7-.2 6.8-2.3C24.8 21.7 26 19 26 16c0-6-4-10-10-10z" fill="url(#leafBodyGradient)"/>
  
  <!-- Leaf vein pattern -->
  <path d="M16 6c0 0 0 20 0 20" stroke="#15803d" stroke-width="1.5" stroke-linecap="round"/>
  <path d="M16 10c-2 1-4 2-6 4" stroke="#15803d" stroke-width="1" stroke-linecap="round"/>
  <path d="M16 10c2 1 4 2 6 4" stroke="#15803d" stroke-width="1" stroke-linecap="round"/>
  <path d="M16 14c-2 1-3 2-4 3" stroke="#15803d" stroke-width="1" stroke-linecap="round"/>
  <path d="M16 14c2 1 3 2 4 3" stroke="#15803d" stroke-width="1" stroke-linecap="round"/>
  <path d="M16 18c-1.5 1-2.5 1.5-3 2" stroke="#15803d" stroke-width="1" stroke-linecap="round"/>
  <path d="M16 18c1.5 1 2.5 1.5 3 2" stroke="#15803d" stroke-width="1" stroke-linecap="round"/>
  
  <!-- Small music note accent -->
  <circle cx="22" cy="10" r="3" fill="#ffffff" opacity="0.9"/>
  <path d="M20 12c0 0.5-.4 1-1 1s-1-.5-1-1 .4-1 1-1 1 .5 1 1zm0-4v4.5c-.2-.2-.5-.3-.7-.3-.8 0-1.5.7-1.5 1.5s.7 1.5 1.5 1.5 1.5-.7 1.5-1.5V9h2V8h-2.8z" fill="#15803d"/>
  
  <!-- Gradient definitions -->
  <defs>
    <linearGradient id="leafGradient" x1="0%" y1="0%" x2="100%" y2="100%">
      <stop offset="0%" style="stop-color:#22c55e;stop-opacity:1" />
      <stop offset="50%" style="stop-color:#16a34a;stop-opacity:1" />
      <stop offset="100%" style="stop-color:#15803d;stop-opacity:1" />
    </linearGradient>
    <linearGradient id="leafBodyGradient" x1="0%" y1="0%" x2="100%" y2="100%">
      <stop offset="0%" style="stop-color:#4ade80;stop-opacity:1" />
      <stop offset="50%" style="stop-color:#22c55e;stop-opacity:1" />
      <stop offset="100%" style="stop-color:#16a34a;stop-opacity:1" />
    </linearGradient>
  </defs>
</svg>